<?xml version="1.0" encoding="UTF-8" standalone="no"?>
<!-- Created with Inkscape (http://www.inkscape.org/) -->

<svg
   xmlns:dc="http://purl.org/dc/elements/1.1/"
   xmlns:cc="http://creativecommons.org/ns#"
   xmlns:rdf="http://www.w3.org/1999/02/22-rdf-syntax-ns#"
   xmlns:svg="http://www.w3.org/2000/svg"
   xmlns="http://www.w3.org/2000/svg"
   xmlns:sodipodi="http://sodipodi.sourceforge.net/DTD/sodipodi-0.dtd"
   xmlns:inkscape="http://www.inkscape.org/namespaces/inkscape"
   width="512"
   height="512"
   viewBox="0 0 135.46666 135.46667"
   version="1.1"
   id="svg4897"
   inkscape:version="0.92.1 r15371"
   sodipodi:docname="quick-notes-logo.svg">
  <defs
     id="defs4891" />
  <sodipodi:namedview
     id="base"
     pagecolor="#ffffff"
     bordercolor="#666666"
     borderopacity="1.0"
     inkscape:pageopacity="0.0"
     inkscape:pageshadow="2"
     inkscape:zoom="0.98994949"
     inkscape:cx="155.71709"
     inkscape:cy="267.55968"
     inkscape:document-units="px"
     inkscape:current-layer="layer1"
     showgrid="false"
     units="px"
     inkscape:window-width="1304"
     inkscape:window-height="749"
     inkscape:window-x="-8"
     inkscape:window-y="-8"
     inkscape:window-maximized="1" />
  <metadata
     id="metadata4894">
    <rdf:RDF>
      <cc:Work
         rdf:about="">
        <dc:format>image/svg+xml</dc:format>
        <dc:type
           rdf:resource="http://purl.org/dc/dcmitype/StillImage" />
        <dc:title></dc:title>
      </cc:Work>
    </rdf:RDF>
  </metadata>
  <g
     inkscape:label="Layer 1"
     inkscape:groupmode="layer"
     id="layer1"
     transform="translate(0,-161.53332)">
    <g
       id="g5564">
      <g
         transform="matrix(1,0,0,1.1537401,1.4011981,-37.680446)"
         id="g5550">
        <path
           style="opacity:1;fill:#f8f097;fill-opacity:1;stroke:none;stroke-width:0.84673905;stroke-linecap:butt;stroke-linejoin:round;stroke-miterlimit:4;stroke-dasharray:none;stroke-dashoffset:0;stroke-opacity:1;paint-order:markers fill stroke"
           d="M -0.91231048,174.10312 V 288.84087 H 113.82544 V 174.10312 Z m 8.29319878,3.62145 a 3.6450461,3.6450461 0 0 1 2.2596155,0.78165 l 0.02903,0.023 a 3.6450461,3.6450461 0 0 1 0.5615462,5.1176 3.6450461,3.6450461 0 0 1 -5.1163064,0.57455 3.6450461,3.6450461 0 0 1 -0.5875434,-5.11458 3.6450461,3.6450461 0 0 1 2.8536576,-1.38219 z m 0,12.43373 a 3.6450461,3.6450461 0 0 1 2.2596155,0.78166 l 0.02903,0.023 a 3.6450461,3.6450461 0 0 1 0.5615462,5.1176 3.6450461,3.6450461 0 0 1 -5.1163064,0.57455 3.6450461,3.6450461 0 0 1 -0.5875434,-5.11458 3.6450461,3.6450461 0 0 1 2.8536576,-1.38219 z m 0,12.4333 a 3.6450461,3.6450461 0 0 1 2.2596155,0.78165 l 0.02903,0.0234 a 3.6450461,3.6450461 0 0 1 0.5615462,5.1176 3.6450461,3.6450461 0 0 1 -5.1163064,0.57455 3.6450461,3.6450461 0 0 1 -0.5875434,-5.11501 3.6450461,3.6450461 0 0 1 2.8536576,-1.3822 z m 0,12.43373 a 3.6450461,3.6450461 0 0 1 2.2596155,0.78166 l 0.02903,0.023 a 3.6450461,3.6450461 0 0 1 0.5615462,5.1176 3.6450461,3.6450461 0 0 1 -5.1163064,0.57455 3.6450461,3.6450461 0 0 1 -0.5875434,-5.11458 3.6450461,3.6450461 0 0 1 2.8536576,-1.38219 z m 0,12.58062 a 3.6450461,3.6450461 0 0 1 2.2596155,0.78209 l 0.02903,0.023 a 3.6450461,3.6450461 0 0 1 0.5615462,5.11761 3.6450461,3.6450461 0 0 1 -5.1163064,0.57454 3.6450461,3.6450461 0 0 1 -0.5875434,-5.115 3.6450461,3.6450461 0 0 1 2.8536576,-1.3822 z m 0,12.58105 a 3.6450461,3.6450461 0 0 1 2.2596155,0.78166 l 0.02903,0.023 a 3.6450461,3.6450461 0 0 1 0.5615462,5.1176 3.6450461,3.6450461 0 0 1 -5.1163064,0.57455 3.6450461,3.6450461 0 0 1 -0.5875434,-5.11457 3.6450461,3.6450461 0 0 1 2.8536576,-1.3822 z m 0,12.58105 a 3.6450461,3.6450461 0 0 1 2.2596155,0.78166 l 0.02903,0.023 a 3.6450461,3.6450461 0 0 1 0.5615462,5.11761 3.6450461,3.6450461 0 0 1 -5.1163064,0.57454 3.6450461,3.6450461 0 0 1 -0.5875434,-5.11457 3.6450461,3.6450461 0 0 1 2.8536576,-1.3822 z m 0,12.58062 a 3.6450461,3.6450461 0 0 1 2.2596155,0.78166 l 0.02903,0.023 a 3.6450461,3.6450461 0 0 1 0.5615462,5.1176 3.6450461,3.6450461 0 0 1 -5.1163064,0.57455 3.6450461,3.6450461 0 0 1 -0.5875434,-5.11457 3.6450461,3.6450461 0 0 1 2.8536576,-1.3822 z m 0,12.58105 a 3.6450461,3.6450461 0 0 1 2.2596155,0.78166 l 0.02903,0.023 a 3.6450461,3.6450461 0 0 1 0.5615462,5.11761 3.6450461,3.6450461 0 0 1 -5.1163064,0.57454 3.6450461,3.6450461 0 0 1 -0.5875434,-5.11457 3.6450461,3.6450461 0 0 1 2.8536576,-1.3822 z"
           id="rect5442"
           inkscape:connector-curvature="0" />
        <path
           style="fill:none;fill-rule:evenodd;stroke:#c6c6c6;stroke-width:3.99321413;stroke-linecap:round;stroke-linejoin:round;stroke-miterlimit:4;stroke-dasharray:none;stroke-opacity:1"
           d="m 19.85884,194.90097 65.539081,0.2241"
           id="path5527"
           inkscape:connector-curvature="0"
           sodipodi:nodetypes="cc" />
        <path
           inkscape:connector-curvature="0"
           id="path5529"
           d="M 19.85884,210.77587 H 93.664273"
           style="fill:none;fill-rule:evenodd;stroke:#c6c6c6;stroke-width:3.99321413;stroke-linecap:round;stroke-linejoin:round;stroke-miterlimit:4;stroke-dasharray:none;stroke-opacity:1"
           sodipodi:nodetypes="cc" />
        <path
           style="fill:none;fill-rule:evenodd;stroke:#c6c6c6;stroke-width:3.99321413;stroke-linecap:round;stroke-linejoin:round;stroke-miterlimit:4;stroke-dasharray:none;stroke-opacity:1"
           d="M 19.85884,226.53872 H 59.962869"
           id="path5531"
           inkscape:connector-curvature="0"
           sodipodi:nodetypes="cc" />
        <path
           inkscape:connector-curvature="0"
           id="path5533"
           d="m 19.85884,242.30156 55.118545,0.11205"
           style="fill:none;fill-rule:evenodd;stroke:#c6c6c6;stroke-width:3.99321413;stroke-linecap:round;stroke-linejoin:round;stroke-miterlimit:4;stroke-dasharray:none;stroke-opacity:1"
           sodipodi:nodetypes="cc" />
        <path
           sodipodi:nodetypes="cc"
           style="fill:none;fill-rule:evenodd;stroke:#c6c6c6;stroke-width:3.99321413;stroke-linecap:round;stroke-linejoin:round;stroke-miterlimit:4;stroke-dasharray:none;stroke-opacity:1"
           d="M 19.85884,258.06441 H 64.332766"
           id="path5537"
           inkscape:connector-curvature="0" />
      </g>
      <g
         transform="matrix(-0.4182122,0.51830285,-0.51830285,-0.4182122,270.66599,259.90307)"
         id="g5525">
        <g
           transform="rotate(-0.76345097,-928.07465,-286.64793)"
           id="g5542">
          <path
             sodipodi:nodetypes="ccccc"
             inkscape:connector-curvature="0"
             id="path5516"
             d="m 156.18209,151.71516 -110.739186,87.2116 c 6.971957,3.44549 11.365871,8.66339 12.63727,16.02801 0,0 109.102586,-85.96178 110.839836,-87.16449 -1.84479,-8.00094 -6.28472,-14.27882 -12.73792,-16.07512 z"
             style="fill:#f89797;fill-opacity:1;fill-rule:evenodd;stroke:none;stroke-width:1.85208333;stroke-linecap:round;stroke-linejoin:round;stroke-miterlimit:4;stroke-dasharray:none;stroke-opacity:1" />
          <path
             sodipodi:nodetypes="cscc"
             inkscape:connector-curvature="0"
             id="path5518"
             d="m 45.442904,238.92676 c 0,0 -18.919505,27.51112 -19.988583,28.31293 -1.069078,0.80181 32.625852,-12.28492 32.625852,-12.28492 -1.631875,-8.51873 -6.386166,-13.19448 -12.637269,-16.02801 z"
             style="fill:#fff3d9;fill-opacity:1;fill-rule:evenodd;stroke:none;stroke-width:1.85208333;stroke-linecap:butt;stroke-linejoin:round;stroke-miterlimit:4;stroke-dasharray:none;stroke-opacity:1" />
          <path
             sodipodi:nodetypes="cccc"
             inkscape:connector-curvature="0"
             id="path5520"
             d="m 25.470209,267.25045 5.91769,-8.09106 c 2.14451,1.10111 3.763252,2.34404 3.407691,4.69518 -3.101336,1.15333 -6.194324,2.33171 -9.325381,3.39588 z"
             style="fill:#030200;fill-opacity:1;fill-rule:evenodd;stroke:none;stroke-width:1.85208333;stroke-linecap:butt;stroke-linejoin:miter;stroke-miterlimit:4;stroke-dasharray:none;stroke-opacity:1" />
        </g>
      </g>
    </g>
  </g>
</svg>
