<?xml version="1.0" encoding="UTF-8" standalone="no"?>
<!-- Created with Inkscape (http://www.inkscape.org/) -->

<svg
   xmlns:dc="http://purl.org/dc/elements/1.1/"
   xmlns:cc="http://creativecommons.org/ns#"
   xmlns:rdf="http://www.w3.org/1999/02/22-rdf-syntax-ns#"
   xmlns:svg="http://www.w3.org/2000/svg"
   xmlns="http://www.w3.org/2000/svg"
   xmlns:sodipodi="http://sodipodi.sourceforge.net/DTD/sodipodi-0.dtd"
   xmlns:inkscape="http://www.inkscape.org/namespaces/inkscape"
   width="600"
   height="150"
   viewBox="0 0 158.75 39.6875"
   version="1.1"
   id="svg5572"
   inkscape:version="0.92.1 r15371"
   sodipodi:docname="quick-notes-brand-logo.svg">
  <defs
     id="defs5566" />
  <sodipodi:namedview
     id="base"
     pagecolor="#ffffff"
     bordercolor="#666666"
     borderopacity="1.0"
     inkscape:pageopacity="0.0"
     inkscape:pageshadow="2"
     inkscape:zoom="0.98994949"
     inkscape:cx="320.02394"
     inkscape:cy="72.605142"
     inkscape:document-units="px"
     inkscape:current-layer="layer1"
     showgrid="false"
     units="px"
     inkscape:window-width="1304"
     inkscape:window-height="749"
     inkscape:window-x="-8"
     inkscape:window-y="-8"
     inkscape:window-maximized="1" />
  <metadata
     id="metadata5569">
    <rdf:RDF>
      <cc:Work
         rdf:about="">
        <dc:format>image/svg+xml</dc:format>
        <dc:type
           rdf:resource="http://purl.org/dc/dcmitype/StillImage" />
        <dc:title></dc:title>
      </cc:Work>
    </rdf:RDF>
  </metadata>
  <g
     inkscape:label="Layer 1"
     inkscape:groupmode="layer"
     id="layer1"
     transform="translate(0,-257.3125)">
    <g
       id="g6261"
       transform="translate(-4.0090426,-0.53453906)">
      <g
         transform="matrix(0.269124,0,0,0.269124,4.762054,215.4909)"
         id="g5564">
        <g
           id="g5550"
           transform="matrix(1,0,0,1.1537401,1.4011981,-37.680446)">
          <path
             inkscape:connector-curvature="0"
             id="rect5442"
             d="M -0.91231048,174.10312 V 288.84087 H 113.82544 V 174.10312 Z m 8.29319878,3.62145 a 3.6450461,3.6450461 0 0 1 2.2596155,0.78165 l 0.02903,0.023 a 3.6450461,3.6450461 0 0 1 0.5615462,5.1176 3.6450461,3.6450461 0 0 1 -5.1163064,0.57455 3.6450461,3.6450461 0 0 1 -0.5875434,-5.11458 3.6450461,3.6450461 0 0 1 2.8536576,-1.38219 z m 0,12.43373 a 3.6450461,3.6450461 0 0 1 2.2596155,0.78166 l 0.02903,0.023 a 3.6450461,3.6450461 0 0 1 0.5615462,5.1176 3.6450461,3.6450461 0 0 1 -5.1163064,0.57455 3.6450461,3.6450461 0 0 1 -0.5875434,-5.11458 3.6450461,3.6450461 0 0 1 2.8536576,-1.38219 z m 0,12.4333 a 3.6450461,3.6450461 0 0 1 2.2596155,0.78165 l 0.02903,0.0234 a 3.6450461,3.6450461 0 0 1 0.5615462,5.1176 3.6450461,3.6450461 0 0 1 -5.1163064,0.57455 3.6450461,3.6450461 0 0 1 -0.5875434,-5.11501 3.6450461,3.6450461 0 0 1 2.8536576,-1.3822 z m 0,12.43373 a 3.6450461,3.6450461 0 0 1 2.2596155,0.78166 l 0.02903,0.023 a 3.6450461,3.6450461 0 0 1 0.5615462,5.1176 3.6450461,3.6450461 0 0 1 -5.1163064,0.57455 3.6450461,3.6450461 0 0 1 -0.5875434,-5.11458 3.6450461,3.6450461 0 0 1 2.8536576,-1.38219 z m 0,12.58062 a 3.6450461,3.6450461 0 0 1 2.2596155,0.78209 l 0.02903,0.023 a 3.6450461,3.6450461 0 0 1 0.5615462,5.11761 3.6450461,3.6450461 0 0 1 -5.1163064,0.57454 3.6450461,3.6450461 0 0 1 -0.5875434,-5.115 3.6450461,3.6450461 0 0 1 2.8536576,-1.3822 z m 0,12.58105 a 3.6450461,3.6450461 0 0 1 2.2596155,0.78166 l 0.02903,0.023 a 3.6450461,3.6450461 0 0 1 0.5615462,5.1176 3.6450461,3.6450461 0 0 1 -5.1163064,0.57455 3.6450461,3.6450461 0 0 1 -0.5875434,-5.11457 3.6450461,3.6450461 0 0 1 2.8536576,-1.3822 z m 0,12.58105 a 3.6450461,3.6450461 0 0 1 2.2596155,0.78166 l 0.02903,0.023 a 3.6450461,3.6450461 0 0 1 0.5615462,5.11761 3.6450461,3.6450461 0 0 1 -5.1163064,0.57454 3.6450461,3.6450461 0 0 1 -0.5875434,-5.11457 3.6450461,3.6450461 0 0 1 2.8536576,-1.3822 z m 0,12.58062 a 3.6450461,3.6450461 0 0 1 2.2596155,0.78166 l 0.02903,0.023 a 3.6450461,3.6450461 0 0 1 0.5615462,5.1176 3.6450461,3.6450461 0 0 1 -5.1163064,0.57455 3.6450461,3.6450461 0 0 1 -0.5875434,-5.11457 3.6450461,3.6450461 0 0 1 2.8536576,-1.3822 z m 0,12.58105 a 3.6450461,3.6450461 0 0 1 2.2596155,0.78166 l 0.02903,0.023 a 3.6450461,3.6450461 0 0 1 0.5615462,5.11761 3.6450461,3.6450461 0 0 1 -5.1163064,0.57454 3.6450461,3.6450461 0 0 1 -0.5875434,-5.11457 3.6450461,3.6450461 0 0 1 2.8536576,-1.3822 z"
             style="opacity:1;fill:#f8f097;fill-opacity:1;stroke:none;stroke-width:0.84673905;stroke-linecap:butt;stroke-linejoin:round;stroke-miterlimit:4;stroke-dasharray:none;stroke-dashoffset:0;stroke-opacity:1;paint-order:markers fill stroke" />
          <path
             sodipodi:nodetypes="cc"
             inkscape:connector-curvature="0"
             id="path5527"
             d="m 19.85884,194.90097 65.539081,0.2241"
             style="fill:none;fill-rule:evenodd;stroke:#c6c6c6;stroke-width:3.99321413;stroke-linecap:round;stroke-linejoin:round;stroke-miterlimit:4;stroke-dasharray:none;stroke-opacity:1" />
          <path
             sodipodi:nodetypes="cc"
             style="fill:none;fill-rule:evenodd;stroke:#c6c6c6;stroke-width:3.99321413;stroke-linecap:round;stroke-linejoin:round;stroke-miterlimit:4;stroke-dasharray:none;stroke-opacity:1"
             d="M 19.85884,210.77587 H 93.664273"
             id="path5529"
             inkscape:connector-curvature="0" />
          <path
             sodipodi:nodetypes="cc"
             inkscape:connector-curvature="0"
             id="path5531"
             d="M 19.85884,226.53872 H 59.962869"
             style="fill:none;fill-rule:evenodd;stroke:#c6c6c6;stroke-width:3.99321413;stroke-linecap:round;stroke-linejoin:round;stroke-miterlimit:4;stroke-dasharray:none;stroke-opacity:1" />
          <path
             sodipodi:nodetypes="cc"
             style="fill:none;fill-rule:evenodd;stroke:#c6c6c6;stroke-width:3.99321413;stroke-linecap:round;stroke-linejoin:round;stroke-miterlimit:4;stroke-dasharray:none;stroke-opacity:1"
             d="m 19.85884,242.30156 55.118545,0.11205"
             id="path5533"
             inkscape:connector-curvature="0" />
          <path
             inkscape:connector-curvature="0"
             id="path5537"
             d="M 19.85884,258.06441 H 64.332766"
             style="fill:none;fill-rule:evenodd;stroke:#c6c6c6;stroke-width:3.99321413;stroke-linecap:round;stroke-linejoin:round;stroke-miterlimit:4;stroke-dasharray:none;stroke-opacity:1"
             sodipodi:nodetypes="cc" />
        </g>
        <g
           id="g5525"
           transform="matrix(-0.51639005,-0.42057176,0.42057176,-0.51639005,101.58101,438.296)">
          <g
             id="g5542"
             transform="rotate(-0.76345097,-928.07465,-286.64793)">
            <path
               style="fill:#f56b6b;fill-opacity:1;fill-rule:evenodd;stroke:none;stroke-width:1.85208333;stroke-linecap:round;stroke-linejoin:round;stroke-miterlimit:4;stroke-dasharray:none;stroke-opacity:1"
               d="m 156.18209,151.71516 -110.739186,87.2116 c 6.971957,3.44549 11.365871,8.66339 12.63727,16.02801 0,0 109.102586,-85.96178 110.839836,-87.16449 -1.84479,-8.00094 -6.28472,-14.27882 -12.73792,-16.07512 z"
               id="path5516"
               inkscape:connector-curvature="0"
               sodipodi:nodetypes="ccccc" />
            <path
               style="fill:#fff3d9;fill-opacity:1;fill-rule:evenodd;stroke:none;stroke-width:1.85208333;stroke-linecap:butt;stroke-linejoin:round;stroke-miterlimit:4;stroke-dasharray:none;stroke-opacity:1"
               d="m 45.442904,238.92676 c 0,0 -18.919505,27.51112 -19.988583,28.31293 -1.069078,0.80181 32.625852,-12.28492 32.625852,-12.28492 -1.631875,-8.51873 -6.386166,-13.19448 -12.637269,-16.02801 z"
               id="path5518"
               inkscape:connector-curvature="0"
               sodipodi:nodetypes="cscc" />
            <path
               style="fill:#030200;fill-opacity:1;fill-rule:evenodd;stroke:none;stroke-width:1.85208333;stroke-linecap:butt;stroke-linejoin:miter;stroke-miterlimit:4;stroke-dasharray:none;stroke-opacity:1"
               d="m 25.470209,267.25045 5.91769,-8.09106 c 2.14451,1.10111 3.763252,2.34404 3.407691,4.69518 -3.101336,1.15333 -6.194324,2.33171 -9.325381,3.39588 z"
               id="path5520"
               inkscape:connector-curvature="0"
               sodipodi:nodetypes="cccc" />
          </g>
        </g>
      </g>
      <g
         transform="translate(-9.6383929,1.0756062)"
         id="text6151"
         style="font-style:normal;font-variant:normal;font-weight:normal;font-stretch:normal;font-size:25.39999962px;line-height:125%;font-family:'Dancing Script';-inkscape-font-specification:'Dancing Script';letter-spacing:0px;word-spacing:0px;fill:#000000;fill-opacity:1;stroke:#000000;stroke-width:0.26458332px;stroke-linecap:butt;stroke-linejoin:miter;stroke-opacity:1"
         aria-label="Quick Notes">
        <path
           inkscape:connector-curvature="0"
           id="path6153"
           style="font-style:normal;font-variant:normal;font-weight:normal;font-stretch:normal;font-size:27.51666641px;font-family:Billabong;-inkscape-font-specification:Billabong;fill:#f56b6b;fill-opacity:1;stroke:#f56b6b;stroke-width:0.27962926px;stroke-opacity:1"
           d="m 59.839901,281.111 q 1.017851,-0.49438 1.919375,-1.27958 0.930607,-0.7852 1.628562,-1.86122 0.697954,-1.07601 1.105094,-2.44284 0.40714,-1.36682 0.40714,-3.05355 0,-1.62856 -0.319895,-2.73366 -0.319896,-1.10509 -0.930606,-1.80305 -0.58163,-0.69795 -1.39591,-0.98877 -0.81428,-0.31989 -1.832131,-0.31989 -1.395909,0 -2.268352,0.61071 -0.843363,0.61071 -1.337747,1.5704 -0.465304,0.95969 -0.639792,2.12295 -0.174489,1.16325 -0.174489,2.26835 0,0.66887 0.145408,1.42498 0.145407,0.75613 0.465302,1.39591 0.319897,0.61071 0.843363,1.04694 0.523466,0.40714 1.250501,0.40714 0.494386,0 0.872444,-0.20357 0.378059,-0.20357 0.61071,-0.52347 0.261733,-0.31989 0.378059,-0.69795 0.116326,-0.37806 0.116326,-0.72704 0,-0.75612 -0.232652,-1.10509 -0.232651,-0.37807 -0.494384,-0.58163 -0.261733,-0.20357 -0.494384,-0.34898 -0.232653,-0.14541 -0.232653,-0.4653 0,-0.31989 0.203571,-0.58163 0.20357,-0.29082 0.785199,-0.29082 0.261733,0 0.61071,0.17449 0.348978,0.17449 0.639792,0.55255 0.319896,0.37806 0.523466,0.95969 0.232652,0.58163 0.232652,1.39591 0,0.61071 -0.261733,1.22142 -0.232652,0.61071 -0.697955,1.10509 -0.465304,0.46531 -1.134177,0.75612 -0.639792,0.29082 -1.454071,0.29082 -1.541318,0 -2.559168,-0.55256 -0.988769,-0.58162 -1.570398,-1.48315 -0.581629,-0.90152 -0.814281,-2.03569 -0.232651,-1.16327 -0.232651,-2.29744 0,-0.98877 0.290815,-2.21019 0.319895,-1.2505 0.988768,-2.32652 0.668874,-1.10509 1.686724,-1.83213 1.046932,-0.75611 2.530086,-0.75611 0.40714,0 0.668873,0.0873 0.290815,0.0581 0.552548,0.1454 0.290815,0.0873 0.581628,0.20357 0.290815,0.0872 0.697955,0.14541 0.261733,0.0291 0.61071,0.0873 0.348978,0.0291 0.668874,0.11633 0.348978,0.0581 0.610711,0.11632 0.290813,0.0581 0.465302,0.14542 1.01785,0.2908 1.773969,0.9306 0.756117,0.63979 1.279583,1.51224 0.523466,0.87244 0.785199,1.91937 0.261733,1.04693 0.261733,2.18111 0,2.18111 -0.814281,3.80967 -0.785199,1.59948 -1.919375,2.73366 -1.134176,1.13417 -2.41376,1.8612 -1.279583,0.69796 -2.239271,1.07602 0.697955,0.26173 1.570398,0.69795 0.872444,0.43622 1.861213,0.98878 0.988768,0.55254 2.035701,1.16325 1.046932,0.63979 2.093864,1.27959 1.308665,0.7852 2.326515,1.16325 1.017851,0.40715 2.035701,0.40715 0.581629,0 1.134177,-0.31991 0.552548,-0.29081 0.552548,-0.7852 0,-0.52346 -0.203571,-0.69795 -0.174489,-0.17449 -0.261733,-0.31989 0,-0.23265 0.145407,-0.49438 0.174489,-0.23266 0.58163,-0.23266 0.407139,0 0.756117,0.37806 0.378059,0.37806 0.378059,1.07602 0,0.46529 -0.261733,0.98876 -0.261733,0.55255 -0.814281,1.01786 -0.552548,0.46529 -1.424991,0.78519 -0.843362,0.3199 -2.035701,0.3199 -1.308665,0 -2.501005,-0.40714 -1.163257,-0.37806 -2.23927,-1.01786 -1.046933,-0.61071 -2.035701,-1.39591 -0.959688,-0.75611 -1.890295,-1.51222 -0.901524,-0.72704 -1.744886,-1.36684 -0.81428,-0.61071 -1.628561,-0.95969 -0.523466,0.17449 -1.424991,0.40715 -0.901524,0.23265 -1.744887,0.23265 -0.348977,0 -0.727035,-0.0581 -0.348978,-0.0581 -0.639792,-0.20357 -0.290815,-0.14541 -0.494385,-0.40714 -0.174488,-0.26173 -0.174488,-0.6398 0,-0.58162 0.581628,-0.95968 0.610711,-0.37807 1.59948,-0.37807 0.581629,0 1.454072,0.17449 0.901525,0.14542 1.803049,0.49439 z m -4.594868,1.13418 q 0.05816,0.11633 0.261733,0.20357 0.20357,0.0872 0.436221,0.0872 0.319896,0 0.872444,-0.0872 0.581628,-0.0873 0.988769,-0.23266 -0.494385,-0.17449 -0.988769,-0.26173 -0.494384,-0.11632 -0.756117,-0.11632 -0.37806,0 -0.610711,0.0872 -0.232652,0.0873 -0.232652,0.20356 0,0.0873 0.02908,0.11633 z" />
        <path
           inkscape:connector-curvature="0"
           id="path6155"
           style="font-style:normal;font-variant:normal;font-weight:normal;font-stretch:normal;font-size:27.51666641px;font-family:Billabong;-inkscape-font-specification:Billabong;fill:#f56b6b;fill-opacity:1;stroke:#f56b6b;stroke-width:0.26458332px;stroke-opacity:1"
           d="m 76.025693,282.1613 q -0.550333,-0.55034 -0.90805,-1.67852 -0.08255,0.1651 -0.220133,0.71543 -0.110067,0.55034 -0.357717,1.1557 -0.24765,0.57785 -0.6604,1.07315 -0.385233,0.46779 -0.9906,0.46779 -1.761067,0 -2.421467,-1.01812 -0.6604,-1.01812 -0.770466,-2.99932 v -6.63151 q 0.05503,-0.19262 0.05503,-0.27517 0.02752,-0.0826 0.24765,-0.0826 0.137583,0 0.467783,0.055 0.357717,0.055 0.715434,0.1651 0.357716,0.0825 0.632883,0.24765 0.302683,0.1651 0.302683,0.38524 v 4.87045 q 0,0.4953 0,1.10066 0.02752,0.60537 0.08255,1.12819 0.08255,0.4953 0.24765,0.85301 0.1651,0.3302 0.467784,0.3302 0.797983,0 1.23825,-1.59596 0.440266,-1.62349 0.4953,-5.09059 0,-0.22013 -0.110067,-0.44026 -0.110067,-0.22014 -0.110067,-0.52282 0.05503,-0.22013 0.440267,-0.27517 0.41275,-0.055 0.74295,-0.055 0.8255,0 1.210733,0.1651 0.385233,0.1651 0.385233,0.9906 -0.05503,0.4953 -0.110066,0.79798 -0.02752,0.27517 -0.05503,0.52282 0,0.22013 -0.02752,0.4953 0,0.24765 0,0.74295 0,0.63288 0.05503,1.3208 0.05503,0.68792 0.192617,1.26577 0.137583,0.57785 0.3302,0.96308 0.220133,0.35772 0.550333,0.35772 0.302683,0 0.467783,-0.1651 0.1651,-0.19262 0.302684,-0.41275 0.137583,-0.22014 0.275166,-0.38524 0.137584,-0.19261 0.385234,-0.19261 0.220133,0 0.3302,0.1651 0.110066,0.13758 0.110066,0.27516 0,0.52282 -0.275166,0.88054 -0.24765,0.35771 -0.632884,0.57785 -0.357716,0.22013 -0.74295,0.3302 -0.385233,0.0826 -0.632883,0.0826 -0.467783,0 -0.797983,-0.11007 -0.3302,-0.11007 -0.6604,-0.3302 z" />
        <path
           inkscape:connector-curvature="0"
           id="path6157"
           style="font-style:normal;font-variant:normal;font-weight:normal;font-stretch:normal;font-size:27.51666641px;font-family:Billabong;-inkscape-font-specification:Billabong;fill:#f56b6b;fill-opacity:1;stroke:#f56b6b;stroke-width:0.26458332px;stroke-opacity:1"
           d="m 82.915178,270.68685 q 0,0.19261 -0.192617,0.3302 -0.192617,0.11006 -0.440267,0.1651 -0.220133,0.055 -0.440266,0.0826 -0.220134,0.0275 -0.275167,0.0275 -0.57785,0 -1.1557,-0.3302 -0.550333,-0.3302 -1.018117,-1.04563 -0.05503,-0.0826 -0.1651,-0.22013 -0.110066,-0.13759 -0.110066,-0.19262 0,-0.13758 0.192616,-0.24765 0.220134,-0.11007 0.467784,-0.22013 0.275166,-0.11007 0.4953,-0.1651 0.24765,-0.055 0.3302,-0.055 0.550333,0 1.07315,0.27517 0.550333,0.27517 0.880533,1.01812 0.05503,0.0826 0.192617,0.30268 0.1651,0.19262 0.1651,0.27517 z m 2.8067,8.33755 q -0.08255,0.6604 -0.302684,1.37583 -0.220133,0.71543 -0.632883,1.34832 -0.385233,0.60536 -0.9906,1.01811 -0.605367,0.38524 -1.4859,0.38524 -0.687917,0 -1.40335,-0.46779 -0.715433,-0.4953 -0.9906,-1.29328 -0.24765,-0.79798 -0.24765,-1.54093 0,-0.22014 0.02752,-0.6604 0.02752,-0.44027 0.02752,-1.07315 v -3.02684 q 0,-0.22013 -0.02752,-0.46778 0,-0.24765 -0.05503,-0.46778 -0.02752,-0.11007 -0.110066,-0.24765 -0.05503,-0.13759 -0.05503,-0.19262 0,-0.11007 0.137584,-0.1651 0.137583,-0.0826 0.302683,-0.11007 0.1651,-0.0275 0.302683,-0.0275 0.1651,0 0.1651,0 0.08255,0 0.385234,0.0275 0.302683,0 0.632883,0.0825 0.3302,0.0826 0.57785,0.27517 0.275167,0.1651 0.275167,0.4953 0.02752,0.0825 -0.110067,0.30268 -0.110067,0.22014 -0.220133,0.77047 -0.02752,0.22013 -0.05503,0.41275 -0.02752,0.1651 -0.05503,0.38523 -0.02752,0.22014 -0.05503,0.55034 -0.02752,0.30268 -0.05503,0.79798 v 1.651 q 0,0.44027 0.02752,0.90805 0.02752,0.44027 0.110067,0.8255 0.110066,0.35772 0.3302,0.60537 0.220133,0.22013 0.57785,0.22013 0.522816,0 0.8255,-0.30268 0.302683,-0.30269 0.467783,-0.52282 0.302683,-0.41275 0.467783,-1.01812 0.1651,-0.63288 0.302684,-1.29328 l 0.05503,-0.27517 q 0.08255,-0.41275 0.4953,-0.41275 0.41275,0 0.41275,0.57785 v 0.13759 z" />
        <path
           inkscape:connector-curvature="0"
           id="path6159"
           style="font-style:normal;font-variant:normal;font-weight:normal;font-stretch:normal;font-size:27.51666641px;font-family:Billabong;-inkscape-font-specification:Billabong;fill:#f56b6b;fill-opacity:1;stroke:#f56b6b;stroke-width:0.26458332px;stroke-opacity:1"
           d="m 93.072267,280.95056 q -0.6604,1.56845 -1.706033,2.28389 -1.018117,0.68791 -2.421467,0.68791 -0.137583,0 -0.275166,0 -0.110067,0 -0.24765,-0.0275 -0.687917,-0.0826 -1.3208,-0.44027 -0.632883,-0.3302 -1.100667,-0.93557 -0.467783,-0.63288 -0.74295,-1.51341 -0.275166,-0.90805 -0.275166,-2.06375 0,-1.10067 0.275166,-2.3114 0.302684,-1.21074 1.183217,-2.20134 0.770466,-0.88053 1.788583,-1.40335 1.045633,-0.52281 2.118783,-0.52281 0.522817,0 0.935567,0.1651 0.440267,0.13758 0.4953,0.35771 0.05503,0.30269 0.05503,0.77047 0.02752,0.44027 0.02752,1.18322 0,0.63288 -0.110067,0.93556 -0.08255,0.30269 -0.385233,0.30269 -0.3302,-0.0275 -0.467783,-0.3302 -0.137584,-0.3302 -0.275167,-0.68792 -0.137583,-0.38523 -0.357717,-0.68792 -0.220133,-0.3302 -0.715433,-0.35771 -0.715433,0 -1.183217,0.55033 -0.467783,0.55033 -0.74295,1.29328 -0.24765,0.74295 -0.357716,1.4859 -0.08255,0.74295 -0.08255,1.1557 0,1.59597 0.467783,2.75167 0.4953,1.12818 1.73355,1.23825 l 0.302683,0.0275 q 0.853017,0 1.375834,-0.41275 0.522816,-0.44027 0.8255,-0.93557 0.3302,-0.52282 0.4953,-0.93557 0.192616,-0.44026 0.385233,-0.44026 h 0.08255 q 0.357717,0.0275 0.357717,0.46778 0,0.19262 -0.137584,0.55033 z" />
        <path
           inkscape:connector-curvature="0"
           id="path6161"
           style="font-style:normal;font-variant:normal;font-weight:normal;font-stretch:normal;font-size:27.51666641px;font-family:Billabong;-inkscape-font-specification:Billabong;fill:#f56b6b;fill-opacity:1;stroke:#f56b6b;stroke-width:0.26458332px;stroke-opacity:1"
           d="m 102.66827,277.15326 q 0,0.22014 -0.0826,0.90805 -0.0825,0.6604 -0.22013,1.59597 -0.11007,0.52282 -0.30268,1.21073 -0.1651,0.68792 -0.46779,1.29329 -0.30268,0.60536 -0.77046,1.04563 -0.44027,0.41275 -1.100669,0.41275 -0.6604,0 -1.100667,-0.24765 -0.41275,-0.24765 -0.687916,-0.63288 -0.24765,-0.38524 -0.440267,-0.8255 -0.1651,-0.44027 -0.357717,-0.8255 -0.192616,-0.38524 -0.467783,-0.63289 -0.275167,-0.24765 -0.74295,-0.24765 h -0.357717 v 1.651 q 0,0.41275 0.05503,1.01812 0.08255,0.57785 0.192616,1.04563 -0.137583,0.055 -0.467783,0.0825 -0.3302,0.055 -0.467783,0.055 -0.8255,0 -1.100667,-0.1651 -0.24765,-0.1651 -0.24765,-0.93557 V 266.3117 q 0,-0.38524 -0.08255,-0.60537 -0.05503,-0.24765 -0.05503,-0.35772 0,-0.19261 0.24765,-0.3302 0.275166,-0.13758 1.018116,-0.13758 0.467784,0 0.797984,0.0825 0.357716,0.055 0.57785,0.1651 0.302683,0.11007 0.440266,0.27517 -0.1651,0.68791 -0.302683,1.84361 -0.110067,1.1557 -0.192617,2.50402 -0.08255,1.3208 -0.137583,2.66912 -0.02752,1.3208 -0.02752,2.39395 0.110067,-0.24765 0.3302,-0.79799 0.24765,-0.55033 0.57785,-1.07315 0.3302,-0.55033 0.770467,-0.96308 0.440267,-0.41275 0.9906,-0.41275 0.632883,0 0.963083,0.38523 0.357717,0.35772 0.4953,0.88054 0.1651,0.4953 0.19262,1.04563 0.0275,0.52282 0.0275,0.88053 0,0.55034 -0.22014,1.23825 -0.220133,0.68792 -0.632883,1.34832 -0.385233,0.6604 -0.935567,1.21073 -0.550333,0.55034 -1.183216,0.8255 0.440266,0.13759 0.8255,0.44027 0.41275,0.30268 0.715433,0.85302 0.137583,0.22013 0.220133,0.4953 0.08255,0.27516 0.192617,0.52281 0.110067,0.24765 0.275167,0.41275 0.1651,0.1651 0.467783,0.1651 0.412753,0 0.687923,-0.41275 0.30268,-0.41275 0.4953,-1.10066 0.22013,-0.71544 0.35771,-1.651 0.1651,-0.93557 0.30269,-1.95369 0.055,-0.38523 0.19261,-0.4953 0.13759,-0.13758 0.27517,-0.13758 0.46778,0 0.46778,0.63288 z m -4.127496,-1.34831 q 0.02752,-0.22014 0.02752,-0.46779 0.02752,-0.27516 0.02752,-0.57785 0,-0.55033 -0.110067,-0.96308 -0.08255,-0.44027 -0.385233,-0.44027 -0.467784,0 -0.90805,0.4953 -0.440267,0.4953 -0.797984,1.26577 -0.3302,0.74295 -0.550333,1.70603 -0.192617,0.93557 -0.192617,1.84362 0,0.11007 0.05503,0.19262 0.05503,0.055 0.3302,0.055 0.4953,0 0.90805,-0.24765 0.440266,-0.27517 0.770466,-0.71543 0.3302,-0.44027 0.550334,-0.9906 0.220133,-0.57785 0.275166,-1.1557 z" />
        <path
           inkscape:connector-curvature="0"
           id="path6163"
           style="font-style:normal;font-variant:normal;font-weight:normal;font-stretch:normal;font-size:27.51666641px;font-family:Billabong;-inkscape-font-specification:Billabong;fill:#f9eb51;fill-opacity:1;stroke:#f9eb51;stroke-width:0.29329175px;stroke-opacity:1"
           d="m 124.61508,283.20711 q 0,0.27452 -0.15252,0.45753 -0.122,0.18302 -0.33552,0.27452 -0.18301,0.12202 -0.42703,0.18302 -0.21352,0.061 -0.36603,0.061 -1.3116,0 -2.04366,-0.73206 -0.70155,-0.73206 -1.06758,-1.79965 -0.33553,-1.09808 -0.42704,-2.34867 -0.061,-1.2506 -0.061,-2.28768 0,-0.30503 0.0305,-1.06758 0.0305,-0.79307 0.0305,-1.61663 0.0305,-0.85406 0.061,-1.52511 0.0305,-0.67106 0.0305,-0.79306 0,-0.39653 -0.15251,-0.39653 -0.18302,0.27452 -0.48804,1.03708 -0.27452,0.76255 -0.61005,1.79963 -0.33552,1.03709 -0.70155,2.22668 -0.33553,1.18959 -0.61005,2.31817 -0.27452,1.12859 -0.45754,2.07417 -0.1525,0.94556 -0.1525,1.52511 0,0.30503 0.12201,0.54904 0.15251,0.24402 0.15251,0.30503 0.0305,0.0916 -0.15251,0.15251 -0.15252,0.061 -0.36603,0.12201 -0.24403,0.061 -0.51855,0.061 h -0.21351 q -0.61005,0 -0.97608,-0.12201 -0.33552,-0.12201 -0.73205,-0.42703 -0.51854,-0.42703 -0.76256,-0.91507 -0.24402,-0.48805 -0.24402,-1.2811 0,-0.51854 0.0305,-1.46412 0.061,-0.94557 0.12202,-2.01315 0.0914,-1.06758 0.122,-2.10466 0.061,-1.03709 0.061,-1.73864 0,-2.25717 -0.12202,-3.81278 -0.12201,-1.55562 -0.39653,-2.5012 -0.27452,-0.97607 -0.70155,-1.40311 -0.39654,-0.45754 -0.94558,-0.45754 -1.09808,0 -1.83014,0.76256 -0.73206,0.73206 -1.18959,1.79964 -0.42703,1.06759 -0.61004,2.28768 -0.18302,1.18959 -0.18302,2.10466 0,0.21352 0.0305,0.82356 0.0305,0.61005 0.1525,1.2506 0.15251,0.64055 0.42703,1.12858 0.30503,0.48804 0.79307,0.48804 l 0.54904,-0.0305 q 0.12201,0 0.39653,0.061 0.27452,0.0305 0.54904,0.15251 0.27452,0.12201 0.48804,0.33552 0.21352,0.18301 0.21352,0.48804 0,0.18301 -0.21352,0.30503 -0.18301,0.0916 -0.42703,0.1525 -0.24403,0.061 -0.48804,0.0916 -0.21352,0.0305 -0.27452,0.0305 -0.97607,0 -1.70813,-0.42704 -0.70156,-0.42703 -1.1591,-1.15908 -0.45753,-0.73206 -0.67104,-1.67764 -0.24403,-0.97607 -0.24403,-2.04365 0,-1.46411 0.39654,-2.95873 0.36603,-1.49462 1.06758,-2.7147 0.73205,-1.25061 1.73863,-2.01316 1.00658,-0.79307 2.22668,-0.79307 0.61004,0 1.18959,0.33554 0.57954,0.30501 1.06758,0.82356 0.51854,0.51854 0.91507,1.15909 0.39653,0.61004 0.67105,1.25059 0.24402,0.51855 0.39653,1.2506 0.15251,0.70155 0.24402,1.49461 0.0914,0.76256 0.12201,1.55562 0.061,0.79307 0.0914,1.43362 0.0305,0.39652 0.061,1.03707 0.0305,0.64055 0.0305,1.3726 0.0305,0.70157 0.0305,1.43362 0,0.70155 0,1.2811 0.18301,-0.67105 0.61005,-2.10466 0.45754,-1.46411 0.94557,-3.20275 0.51855,-1.73863 0.97608,-3.50777 0.48803,-1.76914 0.76255,-3.05024 0.12202,-0.48803 0.42704,-0.57954 0.33553,-0.0915 0.54905,-0.0915 0.54904,0 1.09808,0.39653 0.57954,0.39653 1.03707,0.94557 0.45754,0.51854 0.73206,1.06758 0.30503,0.51855 0.30503,0.79307 -0.30503,0.15251 -0.51854,0.97607 -0.21352,0.79306 -0.36603,2.07416 -0.12201,1.28109 -0.21352,2.95873 -0.061,1.64712 -0.061,3.47726 0,0.57955 0.0305,1.37261 0.0305,0.79306 0.18301,1.49462 0.18302,0.70155 0.54904,1.18959 0.36603,0.48803 1.03709,0.48803 0.061,0 0.15251,-0.0305 0.0914,-0.061 0.27452,-0.0915 0.061,0.18302 0.061,0.21351 z" />
        <path
           inkscape:connector-curvature="0"
           id="path6165"
           style="font-style:normal;font-variant:normal;font-weight:normal;font-stretch:normal;font-size:27.51666641px;font-family:Billabong;-inkscape-font-specification:Billabong;fill:#f9eb51;fill-opacity:1;stroke:#f9eb51;stroke-width:0.26458332px;stroke-opacity:1"
           d="m 132.85483,275.5573 q 0.11007,-0.19262 0.38523,-0.19262 0.13759,0 0.19262,0.1651 0.055,0.1651 0.055,0.27517 -0.0275,0.85301 -0.38523,1.54093 -0.3302,0.6604 -0.71543,1.1557 -0.22014,0.30268 -0.4953,0.55033 -0.24765,0.24765 -0.52282,0.46779 -0.0275,0.46778 -0.055,0.6604 0,0.1651 -0.0275,0.27516 -0.055,0.41275 -0.27517,1.04564 -0.22013,0.63288 -0.63288,1.23825 -0.38523,0.60536 -0.96308,1.01811 -0.55034,0.44027 -1.29329,0.44027 -0.24765,0 -0.57785,-0.055 -0.30268,-0.055 -0.63288,-0.1651 -0.3302,-0.0825 -0.63288,-0.22014 -0.30269,-0.11006 -0.52282,-0.24765 -0.68792,-0.38523 -1.12818,-0.90805 -0.44027,-0.52281 -0.68792,-1.10066 -0.22013,-0.60537 -0.30268,-1.21074 -0.0825,-0.63288 -0.0825,-1.21073 0,-0.9906 0.19261,-2.00872 0.22014,-1.01811 0.52282,-1.95368 0.30268,-0.93557 0.68792,-1.67852 0.38523,-0.74295 0.74295,-1.1557 0.35771,-0.38523 0.79798,-0.52281 0.44027,-0.1651 0.79798,-0.1651 0.44027,0 0.88054,0.22013 0.44026,0.22013 0.85301,0.55033 0.41275,0.3302 0.79799,0.77047 0.41275,0.41275 0.77046,0.8255 0.27517,0.30268 0.41275,0.9906 0.13759,0.6604 0.22014,1.34832 0.055,0.38523 0.0825,0.8255 0.0275,0.44026 0.0275,0.90805 0.41275,-0.3302 0.6604,-0.68792 0.24765,-0.38523 0.38524,-0.71543 0.1651,-0.3302 0.24765,-0.60537 0.11006,-0.30268 0.22013,-0.46778 z m -3.10938,2.36643 q 0,-0.11007 -0.0275,-0.4953 0,-0.38523 -0.055,-0.90805 -0.0275,-0.52282 -0.13759,-1.07315 -0.0825,-0.57785 -0.27516,-1.04563 -0.1651,-0.46779 -0.44027,-0.77047 -0.27517,-0.3302 -0.68792,-0.3302 -0.41275,0 -0.79798,0.3302 -0.38523,0.3302 -0.68792,0.85302 -0.30268,0.52281 -0.4953,1.18321 -0.1651,0.6604 -0.1651,1.29329 0,1.10066 0.44027,1.62348 0.44027,0.4953 1.51342,0.4953 0.79798,0 1.29328,-0.24765 0.52282,-0.24765 0.52282,-0.38523 v -0.52282 z m -0.13759,2.25637 q -0.3302,0.22013 -0.90805,0.3302 -0.57785,0.11006 -0.96308,0.11006 -0.74295,0 -1.1557,-0.11006 -0.38523,-0.11007 -0.85302,-0.44027 l -0.0275,0.57785 q 0,0.30268 0.0825,0.63288 0.0825,0.3302 0.24765,0.60537 0.19261,0.27517 0.52281,0.46778 0.3302,0.1651 0.8255,0.1651 0.60537,0 1.01812,-0.22013 0.44027,-0.24765 0.68792,-0.60537 0.27516,-0.35771 0.38523,-0.77046 0.13758,-0.41275 0.13758,-0.74295 z" />
        <path
           inkscape:connector-curvature="0"
           id="path6167"
           style="font-style:normal;font-variant:normal;font-weight:normal;font-stretch:normal;font-size:27.51666641px;font-family:Billabong;-inkscape-font-specification:Billabong;fill:#f9eb51;fill-opacity:1;stroke:#f9eb51;stroke-width:0.26458332px;stroke-opacity:1"
           d="m 132.63513,278.44655 q 0.0275,-1.40335 0.0825,-2.86174 0.055,-1.45838 0.11006,-2.69663 0,-0.22013 -0.44026,-0.30268 -0.44027,-0.0826 -0.9906,-0.1651 -0.55034,-0.0825 -0.9906,-0.24765 -0.44027,-0.19262 -0.44027,-0.60537 0,-0.35772 0.71543,-0.41275 0.71544,-0.055 2.11879,-0.055 0.11006,0 0.13758,-0.3302 0.055,-0.3302 0.055,-0.8255 0.0275,-0.52282 0.0275,-1.10067 0.0275,-0.57785 0.055,-1.07315 0.0275,-0.52282 0.0825,-0.85302 0.0825,-0.3302 0.19262,-0.3302 0.13758,0 0.4953,0.055 0.35772,0.055 0.74295,0.1651 0.38523,0.0825 0.6604,0.22013 0.30268,0.13758 0.30268,0.30268 l -0.30268,3.57717 q 0,0.1651 0.27517,0.24765 0.30268,0.055 0.74295,0.0826 0.46778,0 0.96308,0 0.52282,0 0.96308,0.0825 0.46779,0.0826 0.74295,0.27517 0.30269,0.1651 0.30269,0.52281 0,0.055 -0.055,0.19262 -0.055,0.11007 -0.13758,0.11007 -0.055,0 -0.1651,-0.0825 -0.0825,-0.0826 -0.4953,-0.0826 -0.11007,0 -0.60537,0.0275 -0.4953,0.0275 -1.04563,0.0826 -0.55033,0.055 -1.01812,0.13759 -0.44026,0.055 -0.4953,0.1651 -0.0275,0.055 -0.0825,0.6604 -0.0275,0.57785 -0.0825,1.54093 -0.0275,0.96308 -0.055,2.22885 -0.0275,1.23825 -0.0275,2.61408 0,0.52282 0.055,1.01812 0.055,0.4953 0.1651,0.90805 0.11006,0.38523 0.27516,0.63288 0.19262,0.24765 0.44027,0.24765 0.35772,0 0.6604,-0.30268 0.30268,-0.30268 0.55033,-0.8255 0.24765,-0.52282 0.44027,-1.18322 0.19262,-0.6604 0.3302,-1.34831 0.0825,-0.41275 0.19262,-0.57785 0.11006,-0.19262 0.3302,-0.19262 0.19261,0 0.3302,0.13758 0.1651,0.11007 0.1651,0.55034 0,0.27516 -0.0275,0.35771 -0.0825,0.4953 -0.3302,1.37584 -0.22013,0.85301 -0.63288,1.70603 -0.38524,0.8255 -0.96309,1.45838 -0.57785,0.63289 -1.34831,0.63289 -0.74295,0 -1.29329,-0.44027 -0.55033,-0.41275 -0.93556,-1.1557 -0.35772,-0.77047 -0.55034,-1.78858 -0.19261,-1.04564 -0.19261,-2.22885 z" />
        <path
           inkscape:connector-curvature="0"
           id="path6169"
           style="font-style:normal;font-variant:normal;font-weight:normal;font-stretch:normal;font-size:27.51666641px;font-family:Billabong;-inkscape-font-specification:Billabong;fill:#f9eb51;fill-opacity:1;stroke:#f9eb51;stroke-width:0.26458332px;stroke-opacity:1"
           d="m 146.23997,279.1895 q 0,0.68791 -0.24765,1.54093 -0.24765,0.85302 -0.77046,1.59597 -0.52282,0.71543 -1.34832,1.21073 -0.79798,0.4953 -1.92617,0.4953 -1.07315,0 -1.8161,-0.38523 -0.74295,-0.38524 -1.23825,-1.04564 -0.46778,-0.6604 -0.68791,-1.54093 -0.19262,-0.90805 -0.19262,-1.89865 0,-0.96308 0.22013,-2.11878 0.22014,-1.1557 0.68792,-2.1463 0.46778,-1.01812 1.18322,-1.67852 0.71543,-0.68792 1.73355,-0.68792 0.4953,0 0.93556,0.22014 0.44027,0.19261 0.77047,0.52281 0.3302,0.3302 0.52282,0.77047 0.19261,0.44027 0.22013,0.90805 l 0.0275,0.38523 q 0,0.6604 -0.22014,1.45839 -0.22013,0.77046 -0.63288,1.45838 -0.41275,0.6604 -1.01812,1.12818 -0.60536,0.44027 -1.37583,0.44027 -0.13758,0 -0.35772,-0.0275 -0.19261,-0.0275 -0.38523,-0.0826 v 0.79799 q 0,0.19261 0.11007,0.55033 0.13758,0.35772 0.38523,0.71543 0.24765,0.3302 0.63288,0.60537 0.41275,0.24765 0.9906,0.24765 0.79799,0 1.29329,-0.30268 0.52281,-0.3302 0.85301,-0.8255 0.3302,-0.4953 0.4953,-1.10067 0.19262,-0.63288 0.30269,-1.21073 0.0825,-0.38524 0.1651,-0.52282 0.0825,-0.13758 0.27516,-0.13758 0.41275,0 0.41275,0.46778 z m -3.24696,-4.26509 q 0,-0.22013 -0.13759,-0.46778 -0.11006,-0.24765 -0.44026,-0.24765 -0.4953,0 -0.85302,0.52282 -0.35772,0.52281 -0.60537,1.21073 -0.22013,0.6604 -0.3302,1.29328 -0.11006,0.60537 -0.11006,0.79799 v 0.0826 q 0,0.24765 0.0275,0.41275 0.055,0.13758 0.30269,0.13758 h 0.13758 q 0.55033,0 0.93557,-0.41275 0.38523,-0.41275 0.60536,-0.9906 0.24765,-0.57785 0.35772,-1.18322 0.11007,-0.60536 0.11007,-0.9906 z" />
        <path
           inkscape:connector-curvature="0"
           id="path6171"
           style="font-style:normal;font-variant:normal;font-weight:normal;font-stretch:normal;font-size:27.51666641px;font-family:Billabong;-inkscape-font-specification:Billabong;fill:#f9eb51;fill-opacity:1;stroke:#f9eb51;stroke-width:0.26458332px;stroke-opacity:1"
           d="m 152.11564,281.72103 q 0,0.6604 -0.44027,1.01812 -0.44026,0.35771 -1.01811,0.52281 -0.55034,0.1651 -1.12819,0.19262 -0.55033,0.055 -0.79798,0.055 -0.38523,0 -0.96308,-0.0826 -0.55034,-0.0825 -1.10067,-0.24765 -0.52282,-0.19261 -0.90805,-0.52281 -0.35772,-0.3302 -0.35772,-0.8255 0,-0.30269 0.22014,-0.41275 0.24765,-0.13759 0.46778,-0.13759 0.30268,0 0.57785,0.22014 0.30268,0.22013 0.60537,0.46778 0.3302,0.24765 0.71543,0.46778 0.38523,0.22014 0.88053,0.22014 0.22014,0 0.57785,-0.13759 0.38524,-0.1651 0.38524,-0.55033 0,-0.38523 -0.3302,-0.74295 -0.30269,-0.35772 -0.79799,-0.74295 -0.46778,-0.38523 -1.01811,-0.79798 -0.55034,-0.41275 -1.04564,-0.88054 -0.46778,-0.4953 -0.79798,-1.07315 -0.30268,-0.57785 -0.30268,-1.26576 0,-0.96309 0.60536,-1.62349 0.63289,-0.6604 1.45839,-1.04563 0.85301,-0.38523 1.73355,-0.55033 0.88053,-0.1651 1.37583,-0.1651 0.46778,0 0.93557,0.19261 0.46778,0.19262 0.46778,0.74295 0,0.1651 -0.0825,0.4953 -0.055,0.30269 -0.22013,0.60537 -0.13759,0.30268 -0.38524,0.55033 -0.24765,0.22014 -0.63288,0.22014 -0.11007,0 -0.22013,-0.0825 -0.11007,-0.11007 -0.24765,-0.22014 -0.13759,-0.13758 -0.30269,-0.22013 -0.13758,-0.11007 -0.3302,-0.11007 -0.96308,0 -1.34831,0.57785 -0.38524,0.55034 -0.38524,1.18322 0,0.55033 0.63289,1.1557 0.6604,0.60537 1.43086,1.21073 0.79799,0.60537 1.43087,1.21074 0.6604,0.57785 0.6604,1.12818 z" />
      </g>
    </g>
  </g>
</svg>
